<?xml version="1.0" encoding="UTF-8"?>
<svg xmlns="http://www.w3.org/2000/svg" xmlns:xlink="http://www.w3.org/1999/xlink" width="480pt" height="480pt" viewBox="0 0 480 480" version="1.1">
<g id="surface1">
<path style=" stroke:none;fill-rule:nonzero;fill:#2196F3;fill-opacity:1;" d="M 150 60 L 170 60 L 170 420 L 150 420 Z "/>
<path style=" stroke:none;fill-rule:nonzero;fill:#2196F3;fill-opacity:1;" d="M 110 120 L 130 120 L 130 360 L 110 360 Z "/>
<path style=" stroke:none;fill-rule:nonzero;fill:#2196F3;fill-opacity:1;" d="M 310 60 L 330 60 L 330 420 L 310 420 Z "/>
<path style=" stroke:none;fill-rule:nonzero;fill:#2196F3;fill-opacity:1;" d="M 270 120 L 290 120 L 290 360 L 270 360 Z "/>
<path style=" stroke:none;fill-rule:nonzero;fill:#2196F3;fill-opacity:1;" d="M 70 180 L 90 180 L 90 300 L 70 300 Z "/>
<path style=" stroke:none;fill-rule:nonzero;fill:#2196F3;fill-opacity:1;" d="M 190 150 L 210 150 L 210 330 L 190 330 Z "/>
<path style=" stroke:none;fill-rule:nonzero;fill:#2196F3;fill-opacity:1;" d="M 230 210 L 250 210 L 250 280 L 230 280 Z "/>
<path style=" stroke:none;fill-rule:nonzero;fill:#2196F3;fill-opacity:1;" d="M 350 150 L 370 150 L 370 330 L 350 330 Z "/>
<path style=" stroke:none;fill-rule:nonzero;fill:#2196F3;fill-opacity:1;" d="M 390 210 L 410 210 L 410 280 L 390 280 Z "/>
</g>
</svg>
