<?xml version="1.0" encoding="UTF-8"?>
<svg xmlns="http://www.w3.org/2000/svg" xmlns:xlink="http://www.w3.org/1999/xlink" width="480pt" height="480pt" viewBox="0 0 480 480" version="1.1">
<g id="surface1">
<path style=" stroke:none;fill-rule:nonzero;fill:#3F51B5;fill-opacity:1;" d="M 264 248.980469 L 273.089844 190 L 300 190 L 278.769531 290 L 255 290 L 240.050781 230.621094 L 225.050781 290 L 201.28125 290 L 180 190 L 206.949219 190 L 215.859375 250.351563 L 230.199219 190 L 249.789063 190 Z "/>
<path style=" stroke:none;fill-rule:nonzero;fill:#3F51B5;fill-opacity:1;" d="M 124 248.980469 L 133.089844 190 L 160 190 L 138.769531 290 L 115 290 L 100.050781 230.621094 L 85.050781 290 L 61.28125 290 L 40 190 L 66.949219 190 L 75.859375 250.351563 L 90.199219 190 L 109.789063 190 Z "/>
<path style=" stroke:none;fill-rule:nonzero;fill:#3F51B5;fill-opacity:1;" d="M 404 248.980469 L 413.089844 190 L 440 190 L 418.769531 290 L 395 290 L 380.050781 230.621094 L 365.050781 290 L 341.28125 290 L 320 190 L 346.949219 190 L 355.859375 250.351563 L 370.199219 190 L 389.789063 190 Z "/>
<path style=" stroke:none;fill-rule:nonzero;fill:#2196F3;fill-opacity:1;" d="M 85 120 L 395 120 L 395 140 L 85 140 Z "/>
<path style=" stroke:none;fill-rule:nonzero;fill:#2196F3;fill-opacity:1;" d="M 85 120 L 395 120 L 395 140 L 85 140 Z "/>
<path style=" stroke:none;fill-rule:nonzero;fill:#2196F3;fill-opacity:1;" d="M 85 340 L 395 340 L 395 360 L 85 360 Z "/>
<path style=" stroke:none;fill-rule:nonzero;fill:#2196F3;fill-opacity:1;" d="M 74.261719 170 C 95.109375 120.890625 137.148438 82.859375 188.878906 67.5 C 169.230469 90.480469 154.078125 126.480469 146.148438 170 L 166.628906 170 C 177.761719 112.808594 201.820313 69.980469 230 61.640625 L 230 170 L 250 170 L 250 61.640625 C 278.179688 69.96875 302.238281 112.808594 313.371094 170 L 333.851563 170 C 325.921875 126.480469 310.769531 90.480469 291.121094 67.5 C 342.851563 82.859375 384.890625 120.890625 405.738281 170 L 427.109375 170 C 398.648438 94.191406 325.628906 40 240 40 C 154.371094 40 81.351563 94.191406 52.890625 170 Z "/>
<path style=" stroke:none;fill-rule:nonzero;fill:#2196F3;fill-opacity:1;" d="M 405.738281 310 C 384.890625 359.109375 342.851563 397.140625 291.121094 412.5 C 310.769531 389.519531 325.921875 353.519531 333.851563 310 L 313.371094 310 C 302.238281 367.191406 278.179688 410.019531 250 418.359375 L 250 310 L 230 310 L 230 418.359375 C 201.820313 410.03125 177.761719 367.191406 166.628906 310 L 146.148438 310 C 154.078125 353.519531 169.230469 389.519531 188.878906 412.5 C 137.148438 397.140625 95.109375 359.109375 74.261719 310 L 52.890625 310 C 81.351563 385.808594 154.371094 440 240 440 C 325.628906 440 398.648438 385.808594 427.109375 310 Z "/>
</g>
</svg>
