<?xml version="1.0" encoding="UTF-8"?>
<svg xmlns="http://www.w3.org/2000/svg" xmlns:xlink="http://www.w3.org/1999/xlink" width="480pt" height="480pt" viewBox="0 0 480 480" version="1.1">
<g id="surface1">
<path style=" stroke:none;fill-rule:nonzero;fill:#E0E0E0;fill-opacity:1;" d="M 55 405 L 425 405 C 444.328125 405 460 389.328125 460 370 L 460 110 C 460 90.671875 444.328125 75 425 75 L 55 75 C 35.671875 75 20 90.671875 20 110 L 20 370 C 20 389.328125 35.671875 405 55 405 Z "/>
<path style=" stroke:none;fill-rule:nonzero;fill:#D9D9D9;fill-opacity:1;" d="M 260 405 L 425 405 C 444.328125 405 460 389.328125 460 370 L 460 110 C 460 90.671875 444.328125 75 425 75 L 55 75 C 35.671875 75 20 90.671875 20 110 Z "/>
<path style=" stroke:none;fill-rule:nonzero;fill:#EEEEEE;fill-opacity:1;" d="M 67.449219 405 L 425 405 C 444.328125 405 460 389.328125 460 370 L 460 115 Z "/>
<path style=" stroke:none;fill-rule:nonzero;fill:#E0E0E0;fill-opacity:1;" d="M 257.449219 405 L 425 405 C 444.328125 405 460 389.328125 460 370 L 460 115 L 187.710938 316.160156 Z "/>
<path style=" stroke:none;fill-rule:nonzero;fill:#CA3737;fill-opacity:1;" d="M 425 95 L 55 95 C 35.671875 95 20 90.671875 20 110 L 20 370 C 20 389.328125 35.671875 405 55 405 L 70 405 L 70 120 L 410 120 L 410 405 L 425 405 C 444.328125 405 460 389.328125 460 370 L 460 110 C 460 90.671875 444.328125 95 425 95 Z "/>
<path style=" stroke:none;fill-rule:nonzero;fill:#F5F5F5;fill-opacity:1;" d="M 425 75 L 55 75 C 35.671875 75 20 90.359375 20 110 C 20 122.058594 35.179688 132.578125 35.179688 132.578125 L 240 277.558594 L 444.820313 132.589844 C 444.820313 132.589844 460 122.058594 460 110.011719 C 460 90.359375 444.328125 75 425 75 Z "/>
<path style=" stroke:none;fill-rule:nonzero;fill:#E84F4B;fill-opacity:1;" d="M 432.460938 75.820313 L 240 210 L 47.539063 75.820313 C 31.800781 79.191406 20 92.96875 20 110 C 20 122.058594 35.179688 132.578125 35.179688 132.578125 L 240 277.558594 L 444.820313 132.589844 C 444.820313 132.589844 460 122.058594 460 110.011719 C 460 92.96875 448.199219 79.191406 432.460938 75.820313 Z "/>
</g>
</svg>
