<?xml version="1.0" encoding="UTF-8"?>
<svg xmlns="http://www.w3.org/2000/svg" xmlns:xlink="http://www.w3.org/1999/xlink" width="480pt" height="480pt" viewBox="0 0 480 480" version="1.1">
<g id="surface1">
<path style=" stroke:none;fill-rule:nonzero;fill:#1C9957;fill-opacity:1;" d="M 420 390 L 420 90 C 420 73.429688 406.570313 60 390 60 L 90 60 C 73.429688 60 60 73.429688 60 90 L 60 390 C 60 406.570313 73.429688 420 90 420 L 390 420 C 406.570313 420 420 406.570313 420 390 Z "/>
<path style=" stroke:none;fill-rule:nonzero;fill:#3E7BF1;fill-opacity:1;" d="M 90 420 L 390 420 C 406.570313 420 240 260 240 260 C 240 260 73.429688 420 90 420 Z "/>
<path style=" stroke:none;fill-rule:nonzero;fill:#CBCCC9;fill-opacity:1;" d="M 420 390 L 420 90 C 420 73.429688 260 240 260 240 C 260 240 420 406.570313 420 390 Z "/>
<path style=" stroke:none;fill-rule:nonzero;fill:#EFEFEF;fill-opacity:1;" d="M 390 420 C 406.570313 420 420 406.570313 420 390 L 420 387.550781 L 262.449219 230 L 230 262.449219 L 387.550781 420 Z "/>
<path style=" stroke:none;fill-rule:nonzero;fill:#FFD73D;fill-opacity:1;" d="M 420 90 C 420 73.429688 406.570313 60 390 60 L 387.550781 60 L 60 387.550781 L 60 390 C 60 406.570313 73.429688 420 90 420 L 92.449219 420 L 420 92.449219 Z "/>
<path style=" stroke:none;fill-rule:nonzero;fill:#D73F35;fill-opacity:1;" d="M 360 20 C 304.769531 20 260 64.769531 260 120 C 260 188.128906 336.660156 212.949219 353.328125 318.511719 C 354.398438 325.308594 354.480469 330 360 330 C 365.519531 330 365.601563 325.308594 366.671875 318.511719 C 383.339844 212.949219 460 188.128906 460 120 C 460 64.769531 415.230469 20 360 20 Z "/>
<path style=" stroke:none;fill-rule:nonzero;fill:#752622;fill-opacity:1;" d="M 395 120 C 395 139.328125 379.328125 155 360 155 C 340.671875 155 325 139.328125 325 120 C 325 100.671875 340.671875 85 360 85 C 379.328125 85 395 100.671875 395 120 Z "/>
<path style=" stroke:none;fill-rule:nonzero;fill:#FFFFFF;fill-opacity:1;" d="M 144.929688 125.308594 L 144.929688 146.320313 L 174.871094 146.320313 C 170.949219 159.058594 160.320313 168.171875 144.929688 168.171875 C 126.601563 168.171875 111.75 153.320313 111.75 134.988281 C 111.75 116.660156 126.609375 101.808594 144.929688 101.808594 C 153.171875 101.808594 160.691406 104.828125 166.488281 109.800781 L 181.96875 94.328125 C 172.199219 85.429688 159.199219 80 144.929688 80 C 114.550781 80 89.921875 104.628906 89.921875 135 C 89.921875 165.371094 114.550781 190 144.929688 190 C 193.03125 190 201.300781 146.828125 196.769531 125.390625 Z "/>
</g>
</svg>
