<?xml version="1.0" encoding="UTF-8"?>
<svg xmlns="http://www.w3.org/2000/svg" xmlns:xlink="http://www.w3.org/1999/xlink" width="480pt" height="480pt" viewBox="0 0 480 480" version="1.1">
<g id="surface1">
<path style=" stroke:none;fill-rule:nonzero;fill:#E8EAF6;fill-opacity:1;" d="M 420 390 L 60 390 L 60 230 L 240 60 L 420 230 Z "/>
<path style=" stroke:none;fill-rule:nonzero;fill:#C5CAE9;fill-opacity:1;" d="M 390 210 L 340 160 L 340 90 L 390 90 Z "/>
<path style=" stroke:none;fill-rule:nonzero;fill:#C5CAE9;fill-opacity:1;" d="M 60 390 L 420 390 L 420 440 L 60 440 Z "/>
<path style=" stroke:none;fill-rule:nonzero;fill:#B71C1C;fill-opacity:1;" d="M 240 43 L 40 229 L 60 251 L 240 84 L 420 251 L 440 229 Z "/>
<path style=" stroke:none;fill-rule:nonzero;fill:#D84315;fill-opacity:1;" d="M 180 280 L 300 280 L 300 440 L 180 440 Z "/>
<path style=" stroke:none;fill-rule:nonzero;fill:#01579B;fill-opacity:1;" d="M 210 170 L 270 170 L 270 230 L 210 230 Z "/>
<path style=" stroke:none;fill-rule:nonzero;fill:#FF8A65;fill-opacity:1;" d="M 275 355 C 272 355 270 357 270 360 L 270 380 C 270 383 272 385 275 385 C 278 385 280 383 280 380 L 280 360 C 280 357 278 355 275 355 Z "/>
</g>
</svg>
