<?xml version="1.0" encoding="UTF-8"?>
<svg xmlns="http://www.w3.org/2000/svg" xmlns:xlink="http://www.w3.org/1999/xlink" width="500pt" height="500pt" viewBox="0 0 500 500" version="1.1">
<g id="surface1">
<path style=" stroke:none;fill-rule:nonzero;fill:#000000;fill-opacity:1;" d="M 248.015625 10.425781 C 245.847656 10.425781 243.714844 11.121094 241.855469 12.476563 L 13.71875 190.585938 C 9.417969 193.957031 8.640625 200.195313 12.011719 204.574219 C 15.382813 208.835938 21.625 209.613281 25.964844 206.242188 L 39.683594 195.546875 L 39.683594 456.347656 C 39.683594 461.8125 44.140625 466.269531 49.601563 466.269531 L 188.492188 466.269531 L 188.492188 287.699219 L 307.539063 287.699219 L 307.539063 466.269531 L 446.429688 466.269531 C 451.894531 466.269531 456.347656 461.8125 456.347656 456.347656 L 456.347656 195.546875 L 470.027344 206.242188 C 471.925781 207.636719 474.019531 208.332031 476.191406 208.332031 C 479.175781 208.332031 482.042969 207.054688 484.019531 204.574219 C 487.390625 200.195313 486.613281 193.957031 482.351563 190.585938 L 254.175781 12.476563 C 252.316406 11.121094 250.1875 10.425781 248.015625 10.425781 Z M 347.222656 49.601563 L 347.222656 60.027344 L 406.746094 106.453125 L 406.746094 49.601563 Z "/>
</g>
</svg>
