<?xml version="1.0" encoding="UTF-8"?>
<svg xmlns="http://www.w3.org/2000/svg" xmlns:xlink="http://www.w3.org/1999/xlink" width="480pt" height="480pt" viewBox="0 0 480 480" version="1.1">
<g id="surface1">
<path style=" stroke:none;fill-rule:nonzero;fill:#607D8B;fill-opacity:1;" d="M 150 110 C 150 132.089844 132.089844 150 110 150 C 87.910156 150 70 132.089844 70 110 C 70 87.910156 87.910156 70 110 70 C 132.089844 70 150 87.910156 150 110 Z "/>
<path style=" stroke:none;fill-rule:nonzero;fill:#607D8B;fill-opacity:1;" d="M 280 110 C 280 132.089844 262.089844 150 240 150 C 217.910156 150 200 132.089844 200 110 C 200 87.910156 217.910156 70 240 70 C 262.089844 70 280 87.910156 280 110 Z "/>
<path style=" stroke:none;fill-rule:nonzero;fill:#607D8B;fill-opacity:1;" d="M 410 110 C 410 132.089844 392.089844 150 370 150 C 347.910156 150 330 132.089844 330 110 C 330 87.910156 347.910156 70 370 70 C 392.089844 70 410 87.910156 410 110 Z "/>
<path style=" stroke:none;fill-rule:nonzero;fill:#607D8B;fill-opacity:1;" d="M 150 240 C 150 262.089844 132.089844 280 110 280 C 87.910156 280 70 262.089844 70 240 C 70 217.910156 87.910156 200 110 200 C 132.089844 200 150 217.910156 150 240 Z "/>
<path style=" stroke:none;fill-rule:nonzero;fill:#607D8B;fill-opacity:1;" d="M 280 240 C 280 262.089844 262.089844 280 240 280 C 217.910156 280 200 262.089844 200 240 C 200 217.910156 217.910156 200 240 200 C 262.089844 200 280 217.910156 280 240 Z "/>
<path style=" stroke:none;fill-rule:nonzero;fill:#607D8B;fill-opacity:1;" d="M 410 240 C 410 262.089844 392.089844 280 370 280 C 347.910156 280 330 262.089844 330 240 C 330 217.910156 347.910156 200 370 200 C 392.089844 200 410 217.910156 410 240 Z "/>
<path style=" stroke:none;fill-rule:nonzero;fill:#607D8B;fill-opacity:1;" d="M 150 370 C 150 392.089844 132.089844 410 110 410 C 87.910156 410 70 392.089844 70 370 C 70 347.910156 87.910156 330 110 330 C 132.089844 330 150 347.910156 150 370 Z "/>
<path style=" stroke:none;fill-rule:nonzero;fill:#607D8B;fill-opacity:1;" d="M 280 370 C 280 392.089844 262.089844 410 240 410 C 217.910156 410 200 392.089844 200 370 C 200 347.910156 217.910156 330 240 330 C 262.089844 330 280 347.910156 280 370 Z "/>
<path style=" stroke:none;fill-rule:nonzero;fill:#607D8B;fill-opacity:1;" d="M 410 370 C 410 392.089844 392.089844 410 370 410 C 347.910156 410 330 392.089844 330 370 C 330 347.910156 347.910156 330 370 330 C 392.089844 330 410 347.910156 410 370 Z "/>
</g>
</svg>
