<?xml version="1.0" encoding="UTF-8"?>
<svg xmlns="http://www.w3.org/2000/svg" xmlns:xlink="http://www.w3.org/1999/xlink" width="480pt" height="480pt" viewBox="0 0 480 480" version="1.1">
<g id="surface1">
<path style=" stroke:none;fill-rule:nonzero;fill:#FF1744;fill-opacity:1;" d="M 289.019531 70.589844 C 245.511719 116.128906 220 176.308594 220 240 C 220 303.691406 245.511719 363.871094 289.019531 409.410156 C 200.101563 402.148438 130 328.941406 130 240 C 130 151.058594 200.101563 77.851563 289.019531 70.589844 M 303.558594 30 C 185.609375 30 90 124.019531 90 240 C 90 355.980469 185.609375 450 303.558594 450 C 334.351563 450 363.550781 443.460938 390 431.929688 C 315.160156 399.28125 260 325.699219 260 240 C 260 154.300781 315.160156 80.71875 390 48.070313 C 363.550781 36.539063 334.351563 30 303.558594 30 Z "/>
</g>
</svg>
