<?xml version="1.0" encoding="UTF-8"?>
<svg xmlns="http://www.w3.org/2000/svg" xmlns:xlink="http://www.w3.org/1999/xlink" width="480pt" height="480pt" viewBox="0 0 480 480" version="1.1">
<g id="surface1">
<path style=" stroke:none;fill-rule:nonzero;fill:#2196F3;fill-opacity:1;" d="M 390 70 L 290 70 C 278.949219 70 270 78.949219 270 90 L 270 210 L 300 180 L 390 180 C 401.050781 180 410 171.050781 410 160 L 410 90 C 410 78.949219 401.050781 70 390 70 Z "/>
<path style=" stroke:none;fill-rule:nonzero;fill:#009688;fill-opacity:1;" d="M 69.949219 88.53125 L 70.328125 125.96875 C 71.679688 257.851563 240.820313 408.460938 353.980469 409.621094 L 391.429688 410 C 401.769531 410.101563 410.058594 401.808594 409.960938 391.46875 L 410 318.910156 C 409.890625 308.570313 401.429688 300.109375 391.089844 300 L 310 300 L 268.609375 343.058594 C 242.191406 342.789063 137.160156 237.75 136.890625 211.339844 L 180 170 L 180 88.910156 C 179.890625 78.570313 171.429688 70.109375 161.089844 70 L 88.480469 70 C 78.140625 69.898438 69.851563 78.191406 69.949219 88.53125 Z "/>
</g>
</svg>
