<?xml version="1.0" encoding="UTF-8"?>
<svg xmlns="http://www.w3.org/2000/svg" xmlns:xlink="http://www.w3.org/1999/xlink" width="480pt" height="480pt" viewBox="0 0 480 480" version="1.1">
<g id="surface1">
<path style=" stroke:none;fill-rule:nonzero;fill:#03A9F4;fill-opacity:1;" d="M 440 240 C 440 350.457031 350.457031 440 240 440 C 129.542969 440 40 350.457031 40 240 C 40 129.542969 129.542969 40 240 40 C 350.457031 40 440 129.542969 440 240 Z "/>
<path style=" stroke:none;fill-rule:nonzero;fill:#FFFFFF;fill-opacity:1;" d="M 360 171.199219 C 351.179688 175.109375 340.011719 178.78125 330 180 C 340.179688 173.960938 356.328125 161.378906 360 150 C 350.488281 155.589844 333.289063 161.558594 322.070313 163.71875 C 313.109375 154.21875 300.328125 150 286.171875 150 C 258.96875 150 240 173.050781 240 200 L 240 220 C 200 220 161 189.53125 136.730469 160 C 132.460938 167.210938 130.058594 175.648438 130.058594 184.570313 C 130.058594 202.761719 146.769531 221.21875 160 230 C 151.929688 229.75 136.648438 223.589844 130 220 C 130 220.160156 130 220.359375 130 220.570313 C 130 244.238281 146.609375 260.308594 169.121094 264.789063 C 165.011719 265.921875 160 270 140.71875 270 C 146.980469 289.351563 178.449219 299.578125 200 300 C 183.140625 313.070313 153.078125 320 130 320 C 126.011719 320 123.851563 320.21875 120 319.769531 C 141.78125 333.570313 172.199219 340 200 340 C 290.570313 340 340 270.820313 340 206.300781 C 340 204.179688 339.929688 197.078125 339.820313 195 C 349.5 188.179688 353.421875 181.039063 360 171.199219 "/>
</g>
</svg>
