<?xml version="1.0" encoding="UTF-8"?>
<svg xmlns="http://www.w3.org/2000/svg" xmlns:xlink="http://www.w3.org/1999/xlink" width="480pt" height="480pt" viewBox="0 0 480 480" version="1.1">
<g id="surface1">
<path style=" stroke:none;fill-rule:nonzero;fill:#3E2723;fill-opacity:1;" d="M 270 132.5 L 390 132.5 L 390 269.808594 L 270 269.808594 Z "/>
<path style=" stroke:none;fill-rule:nonzero;fill:#2196F3;fill-opacity:1;" d="M 367.5 260 C 367.5 260 345.308594 256.871094 330 256.871094 C 314.691406 256.871094 292.5 260 292.5 260 C 292.5 260 210 275.269531 210 360 L 450 360 C 450 275.589844 367.5 260 367.5 260 "/>
<path style=" stroke:none;fill-rule:nonzero;fill:#EF8D3C;fill-opacity:1;" d="M 330 297.5 C 315.609375 297.5 295 260 295 260 L 295 210 L 365 210 L 365 260 C 365 260 344.390625 297.5 330 297.5 "/>
<path style=" stroke:none;fill-rule:nonzero;fill:#FFAA45;fill-opacity:1;" d="M 400 180 C 400 217.28125 367.28125 250 330 250 C 292.710938 250 260 217.28125 260 180 L 260 120 C 260 82.71875 400 62.738281 400 120 Z M 330 310 C 359.011719 310 365 260 365 260 C 365 260 346.359375 290 330 290 C 313.640625 290 295 260 295 260 C 295 260 300.988281 310 330 310 "/>
<path style=" stroke:none;fill-rule:nonzero;fill:#0D47A1;fill-opacity:1;" d="M 330 330 C 365.519531 330 380.660156 290.679688 384.429688 265.328125 C 374.558594 261.398438 367.5 260 367.5 260 C 367.5 260 366.46875 259.859375 365 259.671875 L 365 260 C 365 260 359.011719 310 330 310 C 300.988281 310 295 260 295 260 L 295 259.671875 C 293.53125 259.859375 292.5 260 292.5 260 C 292.5 260 285.441406 261.371094 275.558594 265.28125 C 279.320313 290.628906 294.460938 330 330 330 Z "/>
<path style=" stroke:none;fill-rule:nonzero;fill:#784719;fill-opacity:1;" d="M 350 170 C 350 164.488281 354.480469 160 360 160 C 365.519531 160 370 164.488281 370 170 C 370 175.511719 365.519531 180 360 180 C 354.480469 180 350 175.511719 350 170 M 290 170 C 290 175.511719 294.480469 180 300 180 C 305.519531 180 310 175.511719 310 170 C 310 164.488281 305.519531 160 300 160 C 294.480469 160 290 164.488281 290 170 "/>
<path style=" stroke:none;fill-rule:nonzero;fill:#4E342E;fill-opacity:1;" d="M 330 60 C 284.441406 60 220 80.890625 220 230 L 270 269.800781 L 270 160 L 360 110 L 390 150 L 390 270 L 440 220 C 440 189.808594 437.449219 75 360 75 L 350 60 Z "/>
<path style=" stroke:none;fill-rule:nonzero;fill:#FFA726;fill-opacity:1;" d="M 230 235 C 230 243.28125 223.28125 250 215 250 C 206.710938 250 200 243.28125 200 235 C 200 226.71875 206.710938 220 215 220 C 223.28125 220 230 226.71875 230 235 M 100 235 C 100 226.71875 93.28125 220 85 220 C 76.71875 220 70 226.71875 70 235 C 70 243.28125 76.71875 250 85 250 C 93.28125 250 100 243.28125 100 235 "/>
<path style=" stroke:none;fill-rule:nonzero;fill:#FF9800;fill-opacity:1;" d="M 190 320 C 190 320 190 360 150 360 C 110 360 110 320 110 320 "/>
<path style=" stroke:none;fill-rule:nonzero;fill:#4FC3F7;fill-opacity:1;" d="M 187.5 320 L 150 327.699219 L 112.5 320 C 112.5 320 30 335.269531 30 420 L 270 420 C 270 335.589844 187.5 320 187.5 320 "/>
<path style=" stroke:none;fill-rule:nonzero;fill:#FF9800;fill-opacity:1;" d="M 150 360 C 110 360 110 320 110 320 L 110 280 L 190 280 L 190 320 C 190 320 190 360 150 360 Z "/>
<path style=" stroke:none;fill-rule:nonzero;fill:#FFB74D;fill-opacity:1;" d="M 220 196.800781 C 220 138.011719 80 158.519531 80 196.800781 L 80 240.710938 C 80 278.949219 111.328125 310 150 310 C 188.660156 310 220 278.949219 220 240.699219 Z "/>
<path style=" stroke:none;fill-rule:nonzero;fill:#01579B;fill-opacity:1;" d="M 150 380 C 180.589844 380 205.78125 357.078125 209.480469 327.5 C 200.640625 323.519531 193.449219 321.429688 189.941406 320.570313 C 189.628906 342.378906 171.898438 360 150 360 C 128.101563 360 110.359375 342.378906 110.058594 320.550781 C 106.53125 321.410156 99.351563 323.480469 90.511719 327.429688 C 94.171875 357.050781 119.390625 380 150 380 Z "/>
<path style=" stroke:none;fill-rule:nonzero;fill:#795548;fill-opacity:1;" d="M 150 120 C 101.398438 120 70 163.128906 70 201.71875 L 70 220 L 90 240 L 90 200 L 182 170 L 210 200 L 210 240 L 230 220 L 230 211.910156 C 230 179.730469 221.691406 143.878906 182 135.988281 L 173.988281 120 Z "/>
<path style=" stroke:none;fill-rule:nonzero;fill:#784719;fill-opacity:1;" d="M 170 230 C 170 224.488281 174.480469 220 180 220 C 185.519531 220 190 224.488281 190 230 C 190 235.511719 185.519531 240 180 240 C 174.480469 240 170 235.511719 170 230 M 110 230 C 110 235.511719 114.480469 240 120 240 C 125.519531 240 130 235.511719 130 230 C 130 224.488281 125.519531 220 120 220 C 114.480469 220 110 224.488281 110 230 "/>
</g>
</svg>
